<svg xmlns="http://www.w3.org/2000/svg" viewBox="0 0 32 32" width="32" height="32">
  <rect x="0" y="0" width="32" height="32" rx="7" fill="#14b8a6"/>
  <g fill="none" stroke="#ffffff" stroke-width="1.8" stroke-linecap="round" stroke-linejoin="round" transform="translate(4 4)">
    <path d="m16 16 3-8 3 8c-.87.65-1.92 1-3 1s-2.13-.35-3-1Z"/>
    <path d="m2 16 3-8 3 8c-.87.65-1.92 1-3 1s-2.13-.35-3-1Z"/>
    <path d="M7 21h10"/>
    <path d="M12 3v18"/>
    <path d="M3 7h2c2 0 5-1 7-2 2 1 5 2 7 2h2"/>
  </g>
</svg>
